HIERARCHY
ROOT Hips
{
	OFFSET 0 0 0
	CHANNELS 6 Xposition Yposition Zposition Yrotation Xrotation Zrotation
	JOINT Spine
	{
		OFFSET -0 8.37147 -2.66841
		CHANNELS 3 Yrotation Xrotation Zrotation
		JOINT Spine1
		{
			OFFSET -0 8.81736 0
			CHANNELS 3 Yrotation Xrotation Zrotation
			JOINT Spine2
			{
				OFFSET -0 8.81736 0
				CHANNELS 3 Yrotation Xrotation Zrotation
				JOINT Spine3
				{
					OFFSET -0 8.81736 0
					CHANNELS 3 Yrotation Xrotation Zrotation
					JOINT Neck
					{
						OFFSET -0 20.2165 3.66841
						CHANNELS 3 Yrotation Xrotation Zrotation
						JOINT Head
						{
							OFFSET -0 10.4643 0
							CHANNELS 3 Yrotation Xrotation Zrotation
							End Site
							{
								OFFSET 0 15 0
							}
						}
					}
					JOINT LeftShoulder
					{
						OFFSET 1.74406 7.24 3.48811
						CHANNELS 3 Yrotation Xrotation Zrotation
						JOINT LeftArm
						{
							OFFSET 15.166 0 0
							CHANNELS 3 Yrotation Xrotation Zrotation
							JOINT LeftForeArm
							{
								OFFSET 25.1836 0 0
								CHANNELS 3 Yrotation Xrotation Zrotation
								JOINT LeftHand
								{
									OFFSET 23.8595 0 0
									CHANNELS 3 Yrotation Xrotation Zrotation
									End Site
									{
										OFFSET 15 0 0
									}
								}
							}
						}
					}
					JOINT RightShoulder
					{
						OFFSET -1.74406 7.24 3.48811
						CHANNELS 3 Yrotation Xrotation Zrotation
						JOINT RightArm
						{
							OFFSET -15.166 0 0
							CHANNELS 3 Yrotation Xrotation Zrotation
							JOINT RightForeArm
							{
								OFFSET -25.1836 0 0
								CHANNELS 3 Yrotation Xrotation Zrotation
								JOINT RightHand
								{
									OFFSET -23.8595 0 0
									CHANNELS 3 Yrotation Xrotation Zrotation
									End Site
									{
										OFFSET -15 0 0
									}
								}
							}
						}
					}
				}
			}
		}
	}
	JOINT LeftUpLeg
	{
		OFFSET 10.4643 -3.48811 2
		CHANNELS 3 Yrotation Xrotation Zrotation
		JOINT LeftLeg
		{
			OFFSET -0 -38.892 2.44168
			CHANNELS 3 Yrotation Xrotation Zrotation
			JOINT LeftFoot
			{
				OFFSET -0 -41.3956 -2.44168
				CHANNELS 3 Yrotation Xrotation Zrotation
				JOINT LeftToeBase
				{
					OFFSET -0 -6.7338 15.6965
					CHANNELS 3 Yrotation Xrotation Zrotation
					End Site
					{
						OFFSET 0 0 5
					}
				}
			}
		}
	}
	JOINT RightUpLeg
	{
		OFFSET -10.4643 -3.48811 2
		CHANNELS 3 Yrotation Xrotation Zrotation
		JOINT RightLeg
		{
			OFFSET -0 -38.892 2.44168
			CHANNELS 3 Yrotation Xrotation Zrotation
			JOINT RightFoot
			{
				OFFSET -0 -41.3956 -2.44168
				CHANNELS 3 Yrotation Xrotation Zrotation
				JOINT RightToeBase
				{
					OFFSET -0 -6.7338 15.6965
					CHANNELS 3 Yrotation Xrotation Zrotation
					End Site
					{
						OFFSET 0 0 5
					}
				}
			}
		}
	}
}
MOTION
Frames: 14
Frame Time: 0.00833333
-79.001190 89.525739 14.561884 15.364993 4.583372 4.161078 1.624955 3.541104 1.492984 1.888335 2.008925 -0.307837 1.887930 -0.616320 -2.107375 1.610708 -1.582469 -2.235445 -7.553375 -16.912853 -3.176204 -3.134372 4.965711 -2.458774 6.718180 5.125706 0.352536 -30.479020 -12.221187 -21.428493 -6.347862 -23.640951 9.325676 31.554573 -5.326030 22.921599 12.527006 -11.035682 -24.649194 52.881871 -24.274265 -15.666324 37.121481 -21.594679 -30.433171 -3.345571 2.805122 -47.016468 7.291179 -24.722937 7.321522 0.000000 16.002120 0.000000 -2.214428 10.281992 -9.173924 0.000000 -0.774379 0.000000 -24.281232 -17.963430 -16.669137 0.000000 27.051811 0.000000 -10.243134 -7.505696 17.226406 0.000000 -4.911916 0.000000
-78.973950 89.528900 14.661516 15.281057 4.173913 4.285875 1.464817 3.247746 1.111216 1.717203 2.117971 -0.432780 1.851863 -0.262733 -1.837266 1.636627 -1.301268 -1.848440 -7.386591 -16.588369 -3.332181 -3.085930 5.040092 -2.243953 7.266726 5.438101 0.283088 -31.264908 -12.461161 -21.790442 -5.985029 -24.376156 9.343618 31.706293 -4.092256 22.796111 12.263578 -10.559632 -24.178626 54.339593 -24.731401 -14.529205 38.460126 -20.207025 -30.970632 -3.380156 3.662280 -47.879441 8.028136 -24.217960 7.070899 0.000000 15.921539 0.000000 -2.763634 10.199826 -9.169195 0.000000 -0.775724 0.000000 -24.314298 -17.589623 -16.993902 0.000000 26.999362 0.000000 -10.117164 -7.538604 17.209588 0.000000 -4.848030 0.000000
-78.918066 89.542804 14.809959 15.053535 3.607218 4.424720 1.396082 3.063461 0.668406 1.645372 2.035949 -0.512419 1.887462 0.030432 -1.543983 1.706593 -0.712989 -1.470700 -7.375898 -16.064843 -3.434502 -3.085925 5.167670 -2.192588 7.522864 5.545706 0.157015 -31.719554 -12.812045 -22.381537 -6.108006 -24.467631 9.332863 31.901667 -4.704879 22.903312 11.837126 -10.061248 -23.654697 55.889078 -25.317248 -12.865430 39.352074 -18.387115 -31.305751 -3.974088 4.788117 -48.298152 8.745471 -23.454639 6.873888 0.000000 15.828048 0.000000 -3.176931 10.071383 -9.175008 0.000000 -0.773068 0.000000 -24.235495 -16.997798 -17.418804 0.000000 26.831814 0.000000 -9.959547 -7.567639 17.155286 0.000000 -4.710383 0.000000
-78.858722 89.564716 14.989738 14.725570 2.876386 4.540715 1.428297 2.838525 0.281507 1.602661 2.107618 -0.572196 1.924637 0.432348 -1.251348 1.800600 -0.245327 -1.142731 -7.361116 -15.471244 -3.606516 -3.081439 5.611066 -2.131817 7.761702 5.723892 0.119168 -32.171883 -13.558181 -23.170847 -6.159238 -24.612832 9.518824 32.340741 -4.117090 22.892366 11.183867 -9.332536 -22.926036 57.656336 -25.581852 -11.161199 39.759823 -16.683487 -31.444358 -4.167079 5.220786 -48.404791 9.396785 -22.476714 6.789078 0.000000 15.745929 0.000000 -3.514310 9.913963 -9.141194 0.000000 -0.812393 0.000000 -24.106196 -16.194369 -17.885463 0.000000 26.593093 0.000000 -9.804173 -7.568669 17.077093 0.000000 -4.629078 0.000000
-78.780396 89.599042 15.191486 14.276161 2.135123 4.626476 1.488032 2.612149 -0.034014 1.643356 2.088141 -0.509303 2.021439 0.762381 -0.912220 1.901323 0.349258 -1.113887 -7.339243 -14.684929 -3.814773 -3.078132 6.082531 -1.961618 7.975314 5.939648 0.031346 -32.727194 -14.100616 -23.751448 -6.178729 -24.737073 9.549836 32.527731 -3.850953 22.804240 10.349891 -8.571434 -22.069376 59.538280 -25.706135 -9.163236 39.896280 -15.164696 -31.186353 -4.445514 5.036956 -47.999329 10.086185 -21.441944 6.766334 0.000000 15.669077 0.000000 -3.779818 9.713969 -9.110595 0.000000 -0.813967 0.000000 -23.813950 -15.297095 -18.337367 0.000000 26.268691 0.000000 -9.695454 -7.517811 16.972530 0.000000 -4.521254 0.000000
-78.706293 89.649213 15.435364 13.792778 1.279561 4.670316 1.597500 2.342841 -0.144490 1.702764 2.190824 -0.500725 2.164389 1.097015 -0.697498 2.055922 0.901747 -1.160141 -7.443922 -13.624380 -4.097605 -3.134979 6.438484 -1.610194 7.968287 5.969543 0.058085 -33.109885 -14.555050 -24.510050 -6.189304 -24.787766 9.574221 32.597988 -3.511697 22.920237 9.309392 -7.372885 -20.757665 61.753750 -25.323489 -7.550508 39.796424 -14.728953 -30.945429 -4.787348 5.398947 -47.649783 10.581110 -20.224210 6.886410 0.000000 15.547580 0.000000 -3.833391 9.516641 -9.127409 0.000000 -0.854795 0.000000 -23.493717 -14.152719 -18.784130 0.000000 25.795287 0.000000 -9.612636 -7.414825 16.944331 0.000000 -4.521706 0.000000
-78.636462 89.696625 15.693968 13.215195 0.303738 4.669392 1.640482 2.228833 -0.266576 1.777144 2.297174 -0.454602 2.421332 1.381558 -0.532799 2.443574 1.396410 -0.838664 -7.762057 -12.617528 -4.730330 -3.271095 6.912609 -1.182215 7.911889 6.378119 -0.281681 -33.881635 -15.011579 -24.935654 -6.213321 -25.232256 9.498753 32.541848 -3.275755 23.345601 7.936745 -6.063726 -20.083785 64.175485 -25.643594 -5.489045 39.012294 -14.003113 -30.209615 -4.829537 5.116609 -47.319729 10.982106 -18.859839 7.148176 0.000000 15.449642 0.000000 -3.806532 9.266784 -9.207635 0.000000 -0.867699 0.000000 -23.056934 -12.814424 -19.216297 0.000000 25.262288 0.000000 -9.629868 -7.304560 16.936921 0.000000 -4.481190 0.000000
-78.557220 89.749414 15.988493 12.643793 -0.746517 4.682785 1.784516 2.030402 -0.244340 1.891008 2.374961 -0.491398 2.561018 1.897077 -0.484830 2.636061 1.924529 -0.618699 -7.959388 -11.541814 -5.120583 -3.336377 7.212097 -0.917836 8.009977 6.762538 -0.362703 -34.559793 -15.652044 -25.460182 -6.192378 -25.095944 9.467268 32.637669 -3.108808 23.309477 7.069938 -4.688918 -19.210405 66.086539 -25.711033 -3.454711 37.890387 -13.390149 -28.962110 -4.948795 4.340216 -47.102401 11.220552 -17.384042 7.443216 0.000000 15.350670 0.000000 -3.619842 9.023997 -9.175623 0.000000 -0.903785 0.000000 -22.637790 -11.339901 -19.684446 0.000000 24.659798 0.000000 -9.631448 -7.171411 16.920601 0.000000 -4.437516 0.000000
-78.438507 89.809583 16.306857 11.935886 -1.887757 4.797582 1.977308 1.813795 -0.192233 2.067265 2.481819 -0.520621 2.663964 2.416569 -0.472650 2.729887 2.762503 -0.427802 -8.086908 -10.870006 -5.594160 -3.361237 7.687751 -0.625583 8.202218 6.855456 -0.562136 -35.147832 -16.118431 -25.899063 -6.113539 -24.998271 9.164845 32.845853 -3.009802 23.672116 6.362971 -3.361521 -18.366733 68.253102 -25.880463 -1.555364 36.680979 -14.098017 -27.596169 -4.994358 4.954121 -46.550315 11.301631 -15.582120 7.698201 0.000000 15.044139 0.000000 -3.101554 8.785290 -9.297877 0.000000 -0.853223 0.000000 -22.079140 -9.795248 -20.297200 0.000000 24.035400 0.000000 -9.640076 -6.998518 16.948251 0.000000 -4.466703 0.000000
-78.324139 89.865973 16.631844 11.175414 -3.104989 4.881835 2.088813 1.772481 -0.185326 2.248177 2.739577 -0.365241 3.001036 2.773036 -0.207137 2.999103 3.380824 -0.769654 -8.451252 -10.003197 -5.828226 -3.480433 8.053178 -0.548330 8.136998 7.207027 -0.474768 -35.777024 -16.611146 -26.316203 -6.079399 -25.310407 8.894661 32.655648 -2.996112 24.260099 5.323921 -1.783169 -17.224594 70.425880 -26.384722 0.048624 34.981786 -14.716596 -25.448003 -4.866335 5.681815 -45.724489 11.327691 -13.719793 8.009349 0.000000 14.793157 0.000000 -2.498002 8.531877 -9.268977 0.000000 -0.856230 0.000000 -21.372544 -8.074638 -20.867890 0.000000 23.374555 0.000000 -9.775050 -6.818773 17.005237 0.000000 -4.479115 0.000000
-78.233575 89.909137 16.968660 10.531008 -4.323736 4.886598 2.164749 1.707363 -0.086305 2.343489 2.906571 -0.321437 3.273627 3.261515 -0.029890 3.373571 4.026758 -0.537292 -8.704648 -9.344462 -6.790130 -3.528124 8.480401 0.030239 8.037512 7.572702 -0.812881 -36.456017 -17.076816 -26.564830 -6.056784 -25.788401 8.613325 32.849120 -2.453230 24.614329 4.514623 -0.159879 -16.381727 72.376804 -26.643400 1.495622 32.691550 -14.831697 -22.925669 -4.983267 5.144776 -44.468224 10.913240 -11.870789 8.432370 0.000000 14.587602 0.000000 -1.577570 8.262583 -9.382572 0.000000 -0.882853 0.000000 -20.747774 -6.241179 -21.311816 0.000000 22.656347 0.000000 -10.043921 -6.643969 17.042128 0.000000 -4.507970 0.000000
-78.128625 89.944775 17.292786 9.762244 -5.589143 5.025657 2.390578 1.671703 0.106591 2.605889 3.227609 -0.261634 3.527097 3.836169 -0.086183 3.600398 4.641104 -0.633446 -9.073147 -8.869087 -6.887530 -3.653990 8.757962 -0.078044 8.023182 7.745358 -0.575971 -37.202654 -17.498097 -27.101098 -6.000418 -25.436736 8.515657 33.143251 -2.638287 24.151812 3.662454 1.285864 -15.223874 74.034953 -26.729114 2.884721 30.144186 -14.860594 -19.984384 -5.083214 4.521233 -42.746184 10.550762 -9.873397 8.702785 0.000000 14.309463 0.000000 -0.593335 8.016151 -9.417316 0.000000 -0.803842 0.000000 -20.049753 -4.481795 -21.888040 0.000000 22.045522 0.000000 -10.219639 -6.522073 17.125144 0.000000 -4.474131 0.000000
-78.023401 89.971222 17.642548 8.990218 -6.903262 5.176892 2.509887 1.705417 0.138619 2.771851 3.327679 -0.223170 3.763798 4.401988 -0.008356 3.892386 5.501542 -0.358405 -9.258152 -8.348367 -7.531525 -3.694615 8.707267 0.119260 7.983695 8.023873 -0.731946 -37.937018 -17.711138 -27.308847 -5.933952 -25.717539 8.118262 33.296215 -2.629686 23.973837 3.185701 2.717276 -14.414227 75.567314 -26.909115 4.023581 26.971252 -14.760631 -16.590600 -5.344457 5.134583 -41.218029 10.117203 -7.855137 8.940134 0.000000 14.127077 0.000000 0.492704 7.732084 -9.288417 0.000000 -0.727967 0.000000 -19.267046 -2.605335 -22.459671 0.000000 21.448232 0.000000 -10.482571 -6.382146 17.281470 0.000000 -4.498707 0.000000
-77.913489 89.970044 17.970943 8.235201 -8.115275 5.314236 2.691657 1.574700 0.270566 2.973703 3.611988 -0.212624 4.012126 5.055847 0.065231 4.191014 6.345738 -0.154088 -9.494063 -8.271913 -7.916259 -3.775395 8.763918 0.175121 8.178254 8.178373 -0.641026 -39.065226 -18.136244 -27.766018 -6.030918 -26.286600 8.341138 33.678493 -2.106031 23.586956 2.435735 3.872865 -13.650801 76.774219 -26.521742 5.074550 23.985647 -14.369600 -13.130043 -5.494347 6.144367 -38.691082 9.461807 -5.943410 9.142274 0.000000 14.004205 0.000000 1.797125 7.413168 -9.439139 0.000000 -0.574246 0.000000 -18.536895 -0.899106 -22.944451 0.000000 20.969308 0.000000 -10.767650 -6.343569 17.388651 0.000000 -4.458212 0.000000
